REM DIRINDEX 1\5,1\2\6,1\2\7,1\3\8,1\3\9,1\3\10,1\3\11,1\4\12,1\4\13,1\4\14
REM DIRNAME cjc042,folder01,folder02,folder03,folder04,folder05,folder06,folder07,folder08,folder09,folder10,folder11,folder12,folder13
TITLE ""
FILE "4Q_t_001-015.mp3" MP3
  TRACK 01 AUDIO
    TITLE "5:cjc042_0979"
    INDEX 01 00:00:00
  TRACK 02 AUDIO
    TITLE "0:"
    INDEX 01 00:04:50
  TRACK 03 AUDIO
    TITLE "6:cjc042_0980"
    INDEX 01 00:05:20
  TRACK 04 AUDIO
    TITLE "0:"
    INDEX 01 00:06:20
  TRACK 05 AUDIO
    TITLE "7:cjc042_0981"
    INDEX 01 00:06:63
  TRACK 06 AUDIO
    TITLE "0:"
    INDEX 01 00:09:47
  TRACK 07 AUDIO
    TITLE "6:cjc042_0982"
    INDEX 01 00:10:16
  TRACK 08 AUDIO
    TITLE "0:"
    INDEX 01 00:11:21
  TRACK 09 AUDIO
    TITLE "7:cjc042_0983"
    INDEX 01 00:11:66
  TRACK 10 AUDIO
    TITLE "0:"
    INDEX 01 00:13:02
  TRACK 11 AUDIO
    TITLE "6:cjc042_0984"
    INDEX 01 00:13:45
  TRACK 12 AUDIO
    TITLE "0:"
    INDEX 01 00:14:45
  TRACK 13 AUDIO
    TITLE "7:cjc042_0985"
    INDEX 01 00:15:19
  TRACK 14 AUDIO
    TITLE "0:"
    INDEX 01 00:17:43
  TRACK 15 AUDIO
    TITLE "6:cjc042_0986"
    INDEX 01 00:18:15
  TRACK 16 AUDIO
    TITLE "0:"
    INDEX 01 00:19:22
  TRACK 17 AUDIO
    TITLE "7:cjc042_0987"
    INDEX 01 00:19:71
  TRACK 18 AUDIO
    TITLE "0:"
    INDEX 01 00:22:01
  TRACK 19 AUDIO
    TITLE "6:cjc042_0988"
    INDEX 01 00:22:48
  TRACK 20 AUDIO
    TITLE "0:"
    INDEX 01 00:23:51
  TRACK 21 AUDIO
    TITLE "7:cjc042_0989"
    INDEX 01 00:24:24
  TRACK 22 AUDIO
    TITLE "0:"
    INDEX 01 00:27:22
  TRACK 23 AUDIO
    TITLE "6:cjc042_0990"
    INDEX 01 00:27:73
  TRACK 24 AUDIO
    TITLE "0:"
    INDEX 01 00:28:72
  TRACK 25 AUDIO
    TITLE "7:cjc042_0991"
    INDEX 01 00:29:44
  TRACK 26 AUDIO
    TITLE "0:"
    INDEX 01 00:34:67
  TRACK 27 AUDIO
    TITLE "6:cjc042_0992"
    INDEX 01 00:35:41
  TRACK 28 AUDIO
    TITLE "0:"
    INDEX 01 00:36:42
  TRACK 29 AUDIO
    TITLE "7:cjc042_0993"
    INDEX 01 00:37:12
  TRACK 30 AUDIO
    TITLE "0:"
    INDEX 01 00:40:42
  TRACK 31 AUDIO
    TITLE "6:cjc042_0994"
    INDEX 01 00:41:16
  TRACK 32 AUDIO
    TITLE "0:"
    INDEX 01 00:42:31
  TRACK 33 AUDIO
    TITLE "7:cjc042_0995"
    INDEX 01 00:42:74
  TRACK 34 AUDIO
    TITLE "0:"
    INDEX 01 00:49:08
  TRACK 35 AUDIO
    TITLE "6:cjc042_0996"
    INDEX 01 00:49:55
  TRACK 36 AUDIO
    TITLE "0:"
    INDEX 01 00:50:54
  TRACK 37 AUDIO
    TITLE "7:cjc042_0997"
    INDEX 01 00:51:26
  TRACK 38 AUDIO
    TITLE "0:"
    INDEX 01 00:52:69
  TRACK 39 AUDIO
    TITLE "6:cjc042_0998"
    INDEX 01 00:53:41
  TRACK 40 AUDIO
    TITLE "0:"
    INDEX 01 00:54:42
  TRACK 41 AUDIO
    TITLE "7:cjc042_0999"
    INDEX 01 00:55:14
  TRACK 42 AUDIO
    TITLE "0:"
    INDEX 01 00:56:24
  TRACK 43 AUDIO
    TITLE "6:cjc042_1000"
    INDEX 01 00:56:67
  TRACK 44 AUDIO
    TITLE "0:"
    INDEX 01 00:57:66
  TRACK 45 AUDIO
    TITLE "7:cjc042_1001"
    INDEX 01 00:58:36
  TRACK 46 AUDIO
    TITLE "0:"
    INDEX 01 00:59:65
  TRACK 47 AUDIO
    TITLE "6:cjc042_1002"
    INDEX 01 01:00:37
  TRACK 48 AUDIO
    TITLE "0:"
    INDEX 01 01:01:48
  TRACK 49 AUDIO
    TITLE "7:cjc042_1003"
    INDEX 01 01:02:18
  TRACK 50 AUDIO
    TITLE "0:"
    INDEX 01 01:07:51
  TRACK 51 AUDIO
    TITLE "6:cjc042_1004"
    INDEX 01 01:08:25
  TRACK 52 AUDIO
    TITLE "0:"
    INDEX 01 01:09:38
  TRACK 53 AUDIO
    TITLE "7:cjc042_1005"
    INDEX 01 01:10:06
  TRACK 54 AUDIO
    TITLE "0:"
    INDEX 01 01:13:04
  TRACK 55 AUDIO
    TITLE "6:cjc042_1006"
    INDEX 01 01:13:53
  TRACK 56 AUDIO
    TITLE "0:"
    INDEX 01 01:14:66
  TRACK 57 AUDIO
    TITLE "7:cjc042_1007"
    INDEX 01 01:15:40
  TRACK 58 AUDIO
    TITLE "0:"
    INDEX 01 01:20:59
  TRACK 59 AUDIO
    TITLE "6:cjc042_1008"
    INDEX 01 01:21:25
  TRACK 60 AUDIO
    TITLE "0:"
    INDEX 01 01:22:27
  TRACK 61 AUDIO
    TITLE "7:cjc042_1009"
    INDEX 01 01:22:74
  TRACK 62 AUDIO
    TITLE "0:"
    INDEX 01 01:29:56
